<svg id="svg" version="1.1" width="1024" height="1024" xmlns="http://www.w3.org/2000/svg"><path d="M470.000 55.210 C 470.000 56.801,472.767 60.994,474.954 62.718 C 478.705 65.675,486.007 68.261,496.836 70.469 C 513.542 73.876,522.081 76.946,525.073 80.621 C 526.360 82.203,526.304 82.301,524.500 81.619 C 518.395 79.313,493.943 73.774,484.199 72.490 C 457.944 69.029,434.630 72.118,415.932 81.534 C 412.201 83.413,408.936 85.299,408.676 85.725 C 408.416 86.151,413.149 86.568,419.194 86.650 C 425.238 86.733,432.279 87.144,434.842 87.565 C 438.795 88.213,436.774 88.589,421.500 90.047 C 389.741 93.079,375.952 89.949,364.280 77.056 C 360.523 72.907,359.520 73.584,358.506 80.954 C 357.284 89.839,361.395 100.628,368.318 106.706 L 371.713 109.687 361.606 114.725 C 344.617 123.194,330.122 134.601,320.592 147.000 C 315.678 153.394,309.000 164.263,309.000 165.868 C 309.000 166.477,311.363 165.478,314.250 163.648 C 317.137 161.817,322.650 158.574,326.500 156.440 L 333.500 152.559 331.598 155.530 C 321.605 171.132,302.836 187.536,284.323 196.848 C 280.925 198.557,277.872 200.398,277.538 200.939 C 276.525 202.578,284.382 205.886,292.150 207.091 C 296.174 207.716,303.186 208.031,307.733 207.792 C 312.280 207.554,316.000 207.438,316.000 207.534 C 316.000 207.631,314.025 208.958,311.612 210.484 C 304.601 214.915,302.682 219.413,302.228 232.482 C 301.923 241.235,302.229 244.734,303.713 249.500 C 304.741 252.800,305.995 255.500,306.500 255.500 C 307.005 255.500,307.722 254.015,308.093 252.199 C 309.348 246.061,310.000 247.627,310.000 256.782 C 310.000 272.872,314.010 297.964,319.870 318.543 L 322.705 328.500 317.393 329.209 C 310.391 330.143,305.325 332.839,300.276 338.316 C 291.760 347.555,288.548 357.512,288.605 374.500 C 288.653 389.069,289.796 394.481,298.581 421.726 C 306.369 445.878,307.602 448.592,313.818 455.237 C 319.664 461.487,324.237 463.813,334.931 465.978 L 343.443 467.701 346.083 481.101 C 349.448 498.180,352.205 507.389,357.103 517.908 C 359.256 522.532,360.901 526.400,360.759 526.503 C 360.617 526.606,356.028 527.224,350.562 527.876 C 319.604 531.567,287.763 544.856,270.126 561.445 C 254.303 576.328,243.069 599.440,242.979 617.299 C 242.960 621.042,242.527 621.804,239.012 624.291 C 227.115 632.707,219.057 650.643,220.420 665.679 L 221.074 672.896 206.287 681.573 C 181.800 695.941,176.993 698.997,165.000 707.827 C 144.817 722.685,133.737 735.317,120.376 758.700 C 99.664 794.948,82.100 853.207,71.597 920.500 C 69.058 936.763,63.000 983.939,63.000 987.442 L 63.000 990.677 72.750 991.816 C 86.197 993.387,101.795 994.817,112.500 995.458 C 120.633 995.946,199.473 996.309,249.130 996.088 L 268.760 996.000 267.352 988.250 C 257.030 931.420,250.602 902.930,239.996 867.000 C 222.742 808.545,207.630 775.272,187.621 751.686 C 184.529 748.042,182.000 744.382,182.000 743.553 C 182.000 742.724,183.170 741.280,184.599 740.343 C 187.173 738.656,187.231 738.678,190.649 742.570 C 223.400 779.869,245.761 836.907,268.440 941.000 C 270.896 952.275,273.212 963.422,273.585 965.772 C 274.595 972.141,275.661 971.728,276.286 964.726 C 276.592 961.302,277.740 950.850,278.838 941.500 C 279.936 932.150,281.813 914.600,283.009 902.500 C 285.525 877.044,286.580 870.593,288.485 869.012 C 290.606 867.252,291.945 870.723,293.183 881.198 C 294.844 895.245,292.463 930.400,286.643 977.750 L 284.400 996.000 286.950 996.105 C 295.469 996.455,819.248 996.086,819.604 995.729 C 820.288 995.045,818.353 979.025,811.906 932.000 C 804.244 876.111,803.309 861.000,807.513 861.000 C 810.176 861.000,813.879 877.021,819.993 915.000 C 823.314 935.625,826.323 953.850,826.679 955.500 C 827.141 957.637,828.538 951.305,831.536 933.500 C 844.312 857.615,849.590 828.216,854.154 807.500 C 861.709 773.210,865.137 763.687,869.344 765.302 C 871.537 766.143,871.447 767.682,868.506 779.592 C 864.488 795.864,860.426 816.762,856.085 843.500 C 853.853 857.250,850.238 879.525,848.053 893.000 C 845.869 906.475,842.040 931.000,839.546 947.500 C 837.051 964.000,834.583 980.070,834.062 983.212 C 833.540 986.353,833.380 990.565,833.705 992.571 L 834.297 996.218 877.399 995.707 C 920.435 995.197,931.910 994.534,952.339 991.377 C 959.506 990.269,963.360 989.225,963.717 988.295 C 965.002 984.947,952.594 918.646,945.883 893.000 C 941.869 877.659,931.661 844.153,926.842 830.500 C 913.007 791.306,898.843 763.523,882.135 742.808 C 863.373 719.546,831.598 698.207,786.243 678.408 C 774.927 673.469,773.073 672.347,773.579 670.750 C 774.544 667.712,774.164 656.327,772.945 651.744 C 770.106 641.066,760.816 629.142,749.572 621.743 C 744.711 618.544,744.613 618.377,742.441 609.500 C 734.417 576.699,720.404 560.289,688.205 545.979 C 682.317 543.363,673.675 539.979,669.000 538.459 C 664.325 536.940,660.363 535.590,660.196 535.461 C 660.029 535.332,662.184 531.716,664.984 527.427 C 671.884 516.858,675.417 509.174,678.539 497.951 C 679.985 492.753,681.503 487.381,681.913 486.014 C 682.495 484.069,683.560 483.374,686.809 482.820 C 696.439 481.176,705.533 474.885,710.479 466.446 C 711.905 464.013,715.275 456.055,717.969 448.761 C 720.662 441.467,724.673 430.853,726.882 425.174 C 732.548 410.602,734.437 401.491,734.384 388.987 C 734.321 374.284,731.628 365.532,725.185 359.089 C 719.931 353.836,713.400 351.349,707.410 352.321 C 704.321 352.822,703.914 352.667,704.479 351.201 C 704.840 350.266,708.216 339.783,711.982 327.906 C 719.947 302.789,723.674 287.070,724.647 274.487 L 725.343 265.500 726.794 269.000 C 727.592 270.925,728.796 275.650,729.470 279.500 L 730.695 286.500 732.188 283.000 C 738.711 267.709,739.226 255.280,733.794 244.227 C 730.759 238.051,722.181 229.562,712.417 223.071 C 708.063 220.176,705.400 218.037,706.500 218.317 C 707.600 218.596,710.275 219.126,712.445 219.495 C 717.377 220.331,724.235 223.769,730.482 228.538 L 735.289 232.207 734.601 227.905 C 733.595 221.617,728.772 212.191,722.378 204.019 L 716.767 196.848 721.843 199.420 C 728.203 202.643,738.829 212.500,743.072 219.112 C 746.963 225.175,747.968 224.332,747.973 215.000 C 747.980 201.606,743.244 190.601,732.613 179.308 C 724.704 170.907,715.892 163.890,705.750 157.918 C 702.587 156.056,700.000 154.188,700.000 153.766 C 700.000 151.192,718.780 154.376,727.582 158.442 C 731.679 160.336,735.000 161.369,735.000 160.751 C 735.000 157.930,730.477 150.784,726.100 146.690 C 717.691 138.825,708.920 135.460,694.000 134.377 C 686.332 133.821,672.071 135.500,666.582 137.607 C 665.564 137.997,665.874 136.412,667.696 131.901 C 669.925 126.384,670.173 124.538,669.828 116.078 C 669.494 107.896,668.976 105.517,666.275 99.759 C 662.503 91.717,655.918 84.806,647.106 79.641 C 643.610 77.593,640.587 76.080,640.387 76.280 C 640.187 76.480,641.176 78.186,642.584 80.072 C 655.054 96.772,658.953 112.875,653.877 126.712 C 651.028 134.475,650.336 134.969,649.491 129.846 C 646.671 112.757,631.262 91.313,613.068 79.161 C 589.023 63.101,562.360 57.755,502.000 56.893 C 488.995 56.707,475.610 55.646,472.061 54.519 C 470.677 54.080,470.000 54.307,470.000 55.210 M401.963 122.399 C 417.016 131.222,433.103 135.614,464.500 139.473 C 488.207 142.386,500.702 145.369,512.210 150.862 C 520.624 154.877,528.000 161.250,528.000 164.503 C 528.000 166.697,527.200 166.410,519.623 161.502 C 506.689 153.123,487.229 147.336,464.000 144.961 C 420.770 140.541,405.563 135.323,394.372 121.067 C 389.254 114.549,388.758 112.778,393.065 116.401 C 394.751 117.820,398.755 120.519,401.963 122.399 M391.781 152.476 C 396.026 153.259,403.325 154.392,408.000 154.994 C 412.675 155.596,418.075 156.369,420.000 156.711 L 423.500 157.333 420.500 158.048 C 418.850 158.441,413.610 158.817,408.855 158.882 C 399.864 159.005,390.636 156.879,382.750 152.867 C 378.433 150.671,377.847 149.494,381.531 150.418 C 382.923 150.768,387.536 151.694,391.781 152.476 M604.481 169.398 C 602.804 174.968,600.762 178.872,597.984 181.816 C 596.782 183.090,596.006 184.339,596.258 184.591 C 596.979 185.312,614.093 185.210,621.922 184.439 C 625.815 184.055,629.000 183.999,629.000 184.314 C 629.000 184.629,625.176 186.339,620.502 188.114 L 612.004 191.342 615.905 193.558 C 618.050 194.777,624.912 198.181,631.153 201.122 C 642.674 206.553,654.000 212.812,654.000 213.749 C 654.000 214.032,652.200 214.022,650.000 213.727 C 647.800 213.432,646.000 213.309,646.000 213.454 C 646.000 213.600,647.533 217.044,649.407 221.109 C 654.500 232.158,655.817 238.000,656.934 254.479 C 657.946 269.410,657.963 269.486,662.467 278.479 C 664.952 283.440,669.694 292.225,673.004 298.000 C 678.605 307.771,684.000 321.534,684.000 326.052 C 684.000 327.123,683.888 327.988,683.750 327.974 C 683.612 327.960,678.242 325.822,671.815 323.224 C 661.503 319.055,659.770 318.002,657.066 314.261 C 645.895 298.801,618.314 290.050,584.383 291.201 C 577.076 291.449,571.327 291.280,571.608 290.826 C 573.286 288.110,564.007 292.177,559.504 296.131 C 557.540 297.855,555.783 299.094,555.599 298.883 C 555.415 298.672,554.868 296.785,554.383 294.689 C 553.897 292.593,553.050 290.828,552.500 290.766 C 550.847 290.581,548.113 299.142,548.054 304.685 C 547.955 314.177,551.077 318.155,555.423 314.072 C 557.227 312.378,557.863 312.200,558.276 313.276 C 558.634 314.209,556.870 315.580,552.864 317.483 C 549.595 319.035,545.830 321.602,544.495 323.188 L 542.070 326.071 535.369 324.904 C 531.684 324.262,525.143 323.979,520.834 324.274 C 516.445 324.575,513.000 324.414,513.000 323.908 C 513.000 322.392,506.016 315.173,502.367 312.918 C 499.613 311.216,499.158 310.514,500.086 309.396 C 501.690 307.464,502.675 307.650,503.290 310.000 C 504.484 314.568,510.509 310.002,512.069 303.347 C 513.072 299.066,511.732 290.384,509.623 287.500 C 508.472 285.925,508.195 286.231,507.037 290.368 C 506.324 292.916,505.461 294.997,505.120 294.993 C 504.779 294.989,503.408 293.383,502.073 291.423 C 499.847 288.154,493.634 284.000,490.972 284.000 C 490.340 284.000,490.124 284.814,490.468 285.898 C 491.037 287.693,490.756 287.671,485.285 285.500 C 480.955 283.783,475.646 282.897,464.180 281.979 C 432.595 279.451,412.129 284.159,398.783 297.022 C 395.287 300.391,392.501 302.171,390.072 302.585 C 382.379 303.895,365.447 308.232,364.500 309.135 C 363.950 309.659,362.972 311.531,362.326 313.294 C 361.509 315.527,361.132 315.893,361.086 314.500 C 360.989 311.571,365.011 303.446,372.072 292.309 C 383.388 274.458,387.287 267.582,390.487 259.826 L 393.653 252.153 394.947 255.729 C 396.180 259.140,403.436 268.000,404.996 268.000 C 405.404 268.000,405.717 263.837,405.692 258.750 C 405.667 253.662,406.231 246.801,406.945 243.502 C 408.175 237.827,412.369 227.000,413.339 227.000 C 413.585 227.000,413.343 228.912,412.800 231.250 C 411.395 237.294,412.441 249.532,414.927 256.121 C 416.752 260.959,423.513 269.820,424.572 268.762 C 424.769 268.564,424.442 265.275,423.845 261.452 C 422.212 250.998,423.305 230.983,425.963 222.639 C 433.406 199.277,444.586 188.279,464.830 184.405 C 478.418 181.806,489.872 182.523,524.295 188.129 C 541.199 190.882,543.756 191.074,549.719 190.035 C 565.748 187.244,585.381 179.073,599.125 169.474 C 602.631 167.025,605.568 165.017,605.652 165.011 C 605.736 165.005,605.209 166.979,604.481 169.398 M580.606 189.000 C 578.879 193.962,571.226 204.624,565.122 210.572 C 556.419 219.052,549.809 222.807,540.278 224.685 C 533.159 226.087,531.657 226.091,525.429 224.725 C 521.618 223.890,517.379 222.854,516.009 222.423 C 513.564 221.655,513.547 221.686,515.124 224.070 C 522.972 235.942,549.168 233.075,565.671 218.538 C 575.483 209.895,582.559 197.203,581.792 189.622 C 581.479 186.533,581.466 186.526,580.606 189.000 M302.241 212.986 C 300.763 215.353,300.601 219.000,301.974 219.000 C 303.005 219.000,306.000 213.829,306.000 212.050 C 306.000 210.276,303.552 210.886,302.241 212.986 M465.602 315.009 C 483.423 317.244,494.480 321.761,499.454 328.839 C 502.228 332.786,502.477 333.806,502.374 340.826 C 502.169 354.806,497.080 369.891,489.641 378.570 C 485.334 383.595,476.507 388.405,467.397 390.692 C 462.031 392.039,456.170 392.424,441.000 392.424 C 419.254 392.424,412.253 391.282,401.306 385.948 C 388.918 379.912,382.589 366.926,381.350 345.000 C 380.149 323.750,384.300 319.231,408.500 315.448 C 418.324 313.913,454.630 313.634,465.602 315.009 M436.112 322.984 C 421.651 326.890,411.711 332.796,405.057 341.434 C 399.985 348.019,399.073 351.433,401.971 352.984 C 405.280 354.755,409.843 353.247,417.000 348.016 C 420.575 345.403,425.300 342.146,427.500 340.777 L 431.500 338.289 431.500 346.969 C 431.500 354.876,431.743 355.967,434.223 359.222 C 438.132 364.352,444.209 367.000,452.066 366.998 C 460.077 366.997,464.452 364.929,468.391 359.282 C 470.827 355.791,471.332 354.069,471.324 349.282 C 471.319 346.102,470.967 342.420,470.542 341.100 L 469.770 338.700 473.135 340.954 C 474.986 342.194,479.046 345.951,482.158 349.303 C 487.062 354.585,488.028 355.222,489.408 354.076 C 491.426 352.402,491.420 349.279,489.386 342.154 C 487.173 334.404,480.066 327.436,471.000 324.128 C 461.718 320.742,446.287 320.236,436.112 322.984 M630.500 326.406 C 651.864 330.889,661.570 335.277,665.002 342.003 C 670.447 352.677,664.885 378.892,654.480 391.590 C 645.902 402.058,625.735 406.129,600.341 402.519 C 586.634 400.570,581.762 399.301,573.403 395.499 C 564.792 391.583,558.664 386.244,555.410 379.822 C 548.728 366.636,547.819 342.399,553.669 333.400 C 555.603 330.424,563.537 326.398,570.000 325.113 C 573.025 324.512,576.400 323.811,577.500 323.556 C 578.600 323.300,588.275 323.271,599.000 323.490 C 614.904 323.815,620.713 324.353,630.500 326.406 M364.629 331.716 C 367.295 334.177,367.858 335.556,368.436 341.052 C 370.351 359.241,374.716 374.789,380.118 382.660 C 386.248 391.593,396.445 397.859,409.229 400.548 C 436.206 406.223,470.465 403.840,486.430 395.178 C 498.588 388.581,507.349 374.829,512.661 354.000 C 514.134 348.225,515.726 342.987,516.200 342.361 C 517.685 340.396,525.191 339.028,529.347 339.965 C 536.407 341.558,537.646 343.693,538.240 355.291 C 539.052 371.161,543.734 384.762,551.470 393.728 C 564.238 408.526,610.323 418.598,638.998 412.856 C 659.375 408.776,671.559 393.932,678.066 365.261 C 680.011 356.693,682.464 351.130,683.736 352.403 C 683.965 352.631,683.419 360.397,682.525 369.659 C 676.669 430.275,669.283 480.520,664.687 491.000 L 663.153 494.500 663.670 488.000 C 663.955 484.425,664.585 478.826,665.069 475.559 C 665.554 472.291,665.751 469.418,665.507 469.174 C 664.596 468.263,658.860 471.362,656.941 473.802 C 655.230 475.977,654.987 477.614,655.213 485.428 C 655.450 493.616,655.239 494.869,653.087 498.011 C 650.747 501.427,644.115 507.888,642.872 507.962 C 642.227 508.001,644.122 498.224,645.965 492.007 C 646.534 490.085,647.000 488.407,647.000 488.278 C 647.000 487.676,641.073 490.698,637.278 493.235 C 631.914 496.821,628.368 502.045,623.088 514.138 C 620.774 519.438,616.883 526.818,614.440 530.536 C 611.998 534.254,610.000 537.427,610.000 537.585 C 610.000 537.744,611.554 537.622,613.453 537.314 L 616.907 536.753 615.841 540.627 C 613.964 547.451,606.394 560.009,604.166 559.996 C 603.800 559.994,603.477 556.056,603.450 551.246 C 603.399 542.426,603.370 542.313,596.523 524.073 L 595.236 520.647 594.681 523.573 C 594.375 525.183,593.831 529.150,593.473 532.388 C 592.906 537.513,592.266 538.874,588.536 542.888 C 584.187 547.568,580.261 554.448,578.059 561.250 C 577.391 563.313,576.501 565.000,576.082 565.000 C 575.662 565.000,574.766 562.533,574.091 559.517 C 572.916 554.265,571.000 551.140,571.000 554.474 C 571.000 557.086,566.395 565.306,563.343 568.143 C 561.779 569.596,558.202 571.934,555.393 573.337 C 552.583 574.741,548.926 577.033,547.265 578.430 L 544.246 580.971 545.579 577.236 C 547.272 572.492,547.306 570.798,545.750 568.683 C 544.617 567.143,543.610 567.590,535.000 573.449 C 529.222 577.381,525.351 579.441,525.120 578.707 C 524.911 578.043,524.089 575.925,523.293 574.000 L 521.846 570.500 519.468 575.000 C 518.160 577.475,517.068 578.825,517.041 578.000 C 517.015 577.175,516.003 574.925,514.793 573.000 L 512.594 569.500 511.898 574.815 C 511.516 577.739,510.983 580.351,510.714 580.619 C 510.445 580.888,508.712 580.185,506.863 579.058 C 505.013 577.930,501.925 577.004,500.000 577.000 C 495.032 576.989,490.639 573.932,486.385 567.525 C 483.425 563.067,481.506 561.402,476.601 559.037 C 473.246 557.419,468.363 555.798,465.750 555.434 L 461.000 554.773 461.000 558.919 C 461.000 561.199,461.659 564.641,462.464 566.567 L 463.927 570.070 460.834 568.285 C 456.408 565.731,451.383 557.538,449.926 550.500 C 448.728 544.716,447.025 540.989,446.978 544.050 C 446.966 544.848,446.076 546.625,445.000 548.000 L 443.044 550.500 443.017 547.500 C 442.966 542.066,440.968 537.085,436.999 532.499 C 432.547 527.355,431.477 523.344,432.458 515.487 C 432.835 512.469,432.939 510.000,432.689 510.000 C 432.439 510.000,430.370 512.862,428.091 516.361 C 423.145 523.952,420.353 531.474,419.286 540.084 L 418.500 546.419 415.333 540.460 C 412.218 534.598,407.850 524.000,408.549 524.000 C 408.745 524.000,410.054 524.523,411.457 525.162 C 412.860 525.802,414.231 526.102,414.503 525.831 C 414.775 525.559,412.966 521.773,410.484 517.418 C 408.001 513.063,404.810 505.675,403.392 501.000 C 399.607 488.520,395.531 481.466,389.455 476.878 C 386.630 474.745,384.098 473.000,383.829 473.000 C 383.559 473.000,383.928 475.813,384.649 479.250 C 385.369 482.688,385.968 487.279,385.979 489.453 L 386.000 493.406 381.918 489.453 C 374.837 482.597,374.038 479.714,375.497 466.288 C 376.133 460.431,375.982 458.621,374.691 456.651 C 373.151 454.301,366.263 449.400,365.534 450.136 C 365.336 450.336,365.565 452.525,366.043 455.000 C 366.522 457.475,366.898 464.225,366.880 470.000 L 366.847 480.500 364.017 474.685 C 362.236 471.023,360.742 465.655,359.983 460.185 C 359.320 455.408,357.706 446.100,356.398 439.500 C 352.623 420.464,351.664 406.923,352.327 382.000 C 352.887 360.926,354.291 346.177,357.088 331.957 C 358.397 325.307,357.708 325.329,364.629 331.716 M586.500 331.698 C 580.252 332.526,573.230 335.051,569.344 337.866 C 562.160 343.070,555.465 359.793,560.175 360.770 C 561.122 360.967,564.251 358.942,567.383 356.106 C 572.059 351.871,577.757 348.000,579.313 348.000 C 579.540 348.000,579.035 350.098,578.191 352.663 C 576.040 359.197,577.704 367.067,582.222 371.729 C 588.334 378.035,604.312 380.077,610.763 375.377 C 615.568 371.876,618.140 365.465,617.798 357.838 L 617.500 351.176 620.184 352.764 C 621.660 353.638,626.799 357.671,631.604 361.727 C 638.803 367.804,640.864 369.048,643.319 368.801 C 647.997 368.329,648.838 365.904,646.203 360.481 C 639.403 346.484,620.821 334.918,600.500 332.033 C 593.394 331.025,591.852 330.988,586.500 331.698 M326.383 342.955 C 329.404 344.104,336.658 350.505,338.237 353.414 C 338.997 354.815,339.616 370.265,340.123 400.500 C 340.538 425.250,341.186 447.165,341.562 449.200 C 342.184 452.570,342.022 452.956,339.739 453.529 C 333.776 455.026,323.514 449.466,319.511 442.570 C 318.211 440.332,316.405 435.575,315.497 432.000 C 314.589 428.425,312.055 421.039,309.865 415.587 C 297.859 385.685,298.545 358.049,311.591 346.023 C 315.154 342.739,316.682 342.000,319.913 342.000 C 322.089 342.000,325.001 342.430,326.383 342.955 M686.689 346.750 C 686.438 347.712,686.232 346.925,686.232 345.000 C 686.232 343.075,686.438 342.288,686.689 343.250 C 686.941 344.212,686.941 345.788,686.689 346.750 M315.113 360.887 C 313.951 362.049,313.001 364.238,313.002 365.750 C 313.004 368.125,313.421 368.515,316.060 368.609 C 319.952 368.749,325.168 373.689,328.516 380.408 C 331.599 386.594,331.620 388.494,328.652 392.406 C 325.434 396.646,323.679 402.473,324.423 406.443 C 325.251 410.852,329.199 415.000,332.569 415.000 C 335.503 415.000,335.548 413.814,332.859 407.189 C 331.586 404.052,331.722 403.493,335.441 396.548 C 339.362 389.226,339.365 389.210,338.118 383.638 C 334.330 366.709,321.741 354.259,315.113 360.887 M713.701 365.960 C 718.000 368.581,719.861 372.533,721.235 381.955 C 723.024 394.230,721.340 403.850,714.466 420.628 C 711.362 428.204,707.507 439.599,705.899 445.951 C 702.713 458.541,701.442 460.867,695.079 465.750 C 690.817 469.021,684.609 470.317,685.494 467.750 C 686.086 466.034,690.717 425.534,691.559 414.710 L 692.243 405.920 694.590 410.710 C 697.142 415.917,697.540 419.449,696.025 423.435 C 694.705 426.907,696.256 426.673,699.411 422.923 C 702.476 419.281,702.935 412.175,700.486 406.312 C 699.081 402.949,699.118 402.395,701.001 398.595 C 703.424 393.703,707.092 390.833,711.926 390.047 C 716.070 389.373,716.968 387.126,714.560 383.451 C 710.899 377.864,702.350 381.750,695.753 392.000 L 692.857 396.500 693.389 392.000 C 693.681 389.525,694.196 384.180,694.533 380.123 C 694.870 376.065,695.534 371.727,696.007 370.481 C 696.800 368.396,701.739 365.895,707.500 364.661 C 708.600 364.425,709.725 364.181,710.000 364.120 C 710.275 364.058,711.941 364.886,713.701 365.960 M481.161 401.547 C 478.985 406.322,479.700 411.854,482.908 415.062 C 485.798 417.952,485.889 417.969,497.692 417.928 C 511.192 417.880,514.272 418.692,516.432 422.869 C 520.580 430.889,527.460 432.083,535.926 426.250 C 541.071 422.705,541.908 422.467,551.244 421.904 C 558.256 421.481,561.575 420.853,562.689 419.740 C 564.113 418.316,563.882 417.980,560.168 416.086 C 555.615 413.763,546.352 413.246,542.684 415.110 C 541.483 415.721,539.150 417.755,537.500 419.632 C 534.169 423.419,529.633 425.148,526.282 423.908 C 525.072 423.461,522.936 420.834,521.536 418.070 C 519.907 414.856,517.821 412.439,515.745 411.362 C 511.440 409.127,499.557 408.427,492.929 410.017 C 487.893 411.225,487.564 411.179,485.824 409.031 C 484.757 407.714,484.000 405.163,484.000 402.889 C 484.000 398.416,482.838 397.866,481.161 401.547 M570.183 412.370 C 569.507 414.239,567.389 417.428,565.477 419.456 C 563.565 421.483,562.000 423.549,562.000 424.046 C 562.000 425.956,568.633 423.658,571.304 420.824 C 573.598 418.389,574.052 417.104,573.804 413.752 C 573.420 408.582,571.779 407.956,570.183 412.370 M447.500 423.404 C 435.566 427.194,426.540 434.496,422.229 443.847 C 420.056 448.561,419.816 450.218,420.200 457.847 C 420.688 467.551,422.184 471.356,427.860 477.332 C 431.027 480.667,437.000 484.797,437.000 483.653 C 437.000 483.434,436.138 481.285,435.084 478.877 C 432.576 473.146,431.786 467.694,433.001 464.498 L 433.979 461.925 436.996 464.155 C 438.655 465.382,443.016 469.944,446.687 474.294 C 456.170 485.532,466.752 493.841,477.500 498.490 L 483.500 501.086 473.000 490.969 C 467.225 485.405,463.400 481.182,464.500 481.585 C 470.505 483.782,497.260 490.058,506.430 491.421 C 524.255 494.069,545.420 493.340,567.000 489.336 C 570.290 488.725,570.410 488.795,569.002 490.494 C 568.178 491.489,564.073 494.707,559.880 497.645 C 553.289 502.263,548.892 506.025,550.128 505.989 C 551.534 505.948,560.393 502.850,563.148 501.436 C 568.638 498.617,578.849 491.034,588.983 482.251 C 594.217 477.715,598.837 474.002,599.250 474.001 C 601.058 473.998,599.911 485.144,597.555 490.471 C 596.210 493.512,595.325 496.000,595.587 496.000 C 596.854 496.000,602.742 492.896,604.657 491.220 C 608.684 487.692,613.747 478.537,614.995 472.525 C 617.313 461.359,614.791 452.949,606.697 444.855 C 602.866 441.024,590.815 434.000,588.072 434.000 C 587.539 434.000,587.760 435.575,588.564 437.500 C 589.369 439.425,589.730 441.000,589.367 441.000 C 589.003 441.000,583.133 438.498,576.322 435.440 C 556.672 426.617,547.331 425.550,535.155 430.739 C 532.880 431.708,528.237 432.335,522.859 432.398 C 514.565 432.496,514.044 432.368,509.859 429.206 C 502.810 423.879,499.226 422.630,489.747 422.199 C 480.096 421.760,469.967 423.554,459.096 427.627 C 455.574 428.946,452.504 429.837,452.273 429.606 C 452.042 429.375,452.561 427.816,453.426 426.143 C 454.292 424.469,455.000 422.852,455.000 422.550 C 455.000 421.670,451.819 422.032,447.500 423.404 M540.215 446.476 C 557.018 449.112,576.021 454.386,585.820 459.132 C 589.296 460.816,591.959 462.374,591.739 462.594 C 590.934 463.400,579.230 460.784,569.000 457.512 C 551.266 451.840,537.947 450.129,497.500 448.326 C 485.773 447.803,453.894 449.803,444.625 451.643 C 442.879 451.990,441.986 451.831,442.352 451.240 C 443.394 449.554,456.066 446.230,467.500 444.644 C 483.864 442.375,519.851 443.281,540.215 446.476 M521.844 457.985 C 548.788 460.507,560.874 462.898,565.809 466.684 C 567.828 468.233,570.791 469.950,572.394 470.500 C 576.424 471.883,577.937 474.491,575.894 476.534 C 572.566 479.862,539.722 483.615,522.500 482.635 C 497.289 481.201,458.514 471.881,456.758 466.833 C 455.796 464.067,457.237 463.000,461.931 463.000 C 465.717 463.000,467.619 462.310,471.571 459.500 L 476.494 456.000 488.562 456.000 C 495.199 456.000,510.176 456.893,521.844 457.985 M480.000 511.257 C 480.000 511.398,480.419 512.973,480.930 514.757 C 482.021 518.560,481.750 518.670,477.956 515.969 L 475.104 513.938 474.014 515.973 C 472.644 518.534,474.219 524.983,476.782 527.303 C 480.686 530.835,488.008 533.024,501.140 534.582 C 522.130 537.072,530.529 536.960,536.340 534.109 C 541.932 531.366,547.000 525.062,547.000 520.850 C 547.000 517.605,547.186 517.643,538.110 519.051 C 532.858 519.866,528.512 519.753,518.755 518.551 C 511.835 517.698,504.513 517.000,502.484 517.000 C 500.455 517.000,494.766 515.650,489.841 514.000 C 480.975 511.030,480.000 510.758,480.000 511.257 M384.340 555.408 C 404.509 580.858,437.479 602.555,475.000 615.070 C 486.358 618.858,509.125 624.000,514.542 624.000 C 516.077 624.000,517.066 624.268,516.739 624.595 C 515.636 625.697,500.110 625.029,491.362 623.504 C 475.818 620.793,461.070 615.562,436.646 604.096 C 430.677 601.293,425.502 599.002,425.146 599.005 C 423.193 599.020,440.513 612.049,450.232 617.877 C 489.294 641.298,524.364 645.658,564.352 632.066 C 581.431 626.262,595.995 616.216,614.164 597.709 L 626.000 585.653 626.000 598.254 C 626.000 612.063,627.315 623.806,629.579 630.223 C 631.359 635.270,634.166 632.063,597.951 666.358 C 548.730 712.970,522.699 736.228,520.295 735.743 C 519.632 735.609,505.232 724.157,488.295 710.293 C 457.142 684.793,409.096 647.013,388.469 631.799 C 378.269 624.275,377.278 623.267,377.859 621.000 C 378.771 617.443,378.654 553.061,377.730 549.750 C 377.307 548.237,377.123 547.000,377.320 547.000 C 377.516 547.000,380.676 550.784,384.340 555.408 M337.579 554.309 C 336.523 554.964,333.935 557.015,331.829 558.866 C 327.235 562.905,326.947 565.826,330.332 574.052 C 335.093 585.624,346.778 601.315,368.789 625.691 C 373.908 631.361,377.883 636.000,377.620 636.000 C 375.988 636.000,363.936 627.832,357.632 622.453 C 343.603 610.483,332.431 595.816,325.296 580.000 C 318.728 565.442,319.528 558.935,328.383 554.914 C 333.137 552.755,340.910 552.243,337.579 554.309 M672.509 562.865 C 680.688 566.581,685.047 574.436,683.545 582.750 C 681.615 593.429,664.751 620.478,650.540 635.686 C 642.660 644.119,628.446 655.779,627.365 654.698 C 627.115 654.448,629.985 650.476,633.742 645.872 C 659.368 614.474,677.000 587.228,677.000 579.026 C 677.000 575.118,673.949 570.196,669.157 566.374 C 666.596 564.330,664.072 562.285,663.550 561.829 C 661.754 560.261,668.492 561.040,672.509 562.865 M292.500 663.701 C 304.665 671.358,320.832 679.933,370.000 704.803 C 410.595 725.337,423.369 732.244,426.332 735.264 C 428.439 737.413,429.961 739.373,429.713 739.620 C 429.020 740.313,397.811 726.868,375.510 716.268 C 311.230 685.717,286.098 670.671,275.842 656.600 C 271.045 650.018,272.513 649.564,280.250 655.237 C 284.238 658.161,289.750 661.970,292.500 663.701 M721.000 658.017 C 721.000 659.621,712.676 667.217,697.500 679.462 C 678.244 695.000,663.685 705.270,645.206 716.351 C 630.208 725.345,606.200 739.000,605.385 739.000 C 605.173 739.000,605.000 737.959,605.000 736.687 C 605.000 733.452,608.502 730.563,624.000 721.007 C 643.627 708.906,675.063 687.502,692.947 674.062 C 701.501 667.633,710.525 661.169,713.000 659.696 C 717.636 656.938,721.000 656.232,721.000 658.017 M602.118 710.882 C 605.525 714.290,606.000 715.339,606.000 719.459 C 606.000 723.315,605.477 724.676,603.077 727.077 C 601.469 728.685,599.492 730.000,598.684 730.000 C 597.875 730.000,596.893 730.788,596.502 731.750 C 596.110 732.712,595.555 744.750,595.269 758.500 C 594.737 784.032,595.819 818.228,598.620 864.443 C 600.139 889.502,600.129 890.432,598.346 891.737 C 597.313 892.494,594.739 892.959,592.500 892.794 L 588.500 892.500 587.793 887.000 C 584.296 859.776,581.768 766.293,583.902 743.088 C 584.977 731.407,584.932 730.553,583.147 728.588 C 574.509 719.081,580.223 707.014,593.368 707.004 C 597.691 707.000,598.669 707.434,602.118 710.882 M449.850 710.920 C 452.996 712.603,455.309 717.706,454.580 721.352 C 454.241 723.044,452.782 725.661,451.338 727.169 C 448.949 729.662,448.771 730.392,449.373 735.206 C 455.117 781.153,459.314 831.814,460.584 870.527 L 461.274 891.554 458.590 892.777 C 455.521 894.175,450.366 894.401,449.605 893.170 C 449.323 892.714,448.625 880.451,448.053 865.920 C 445.985 813.326,438.642 732.000,435.962 732.000 C 434.413 732.000,428.821 726.661,427.939 724.339 C 423.964 713.885,438.619 704.909,449.850 710.920 M471.668 753.334 C 478.176 756.267,486.200 760.109,489.500 761.871 C 495.238 764.935,495.335 765.050,491.727 764.488 C 487.821 763.880,461.989 754.431,460.862 753.198 C 459.985 752.237,458.752 748.000,459.351 748.000 C 459.618 748.000,465.161 750.400,471.668 753.334 M575.000 752.453 C 575.000 754.412,574.043 755.339,570.250 757.052 C 561.391 761.053,543.847 766.745,545.542 765.068 C 546.691 763.931,573.177 750.048,574.250 750.020 C 574.663 750.009,575.000 751.104,575.000 752.453 M468.250 900.198 C 471.110 903.505,470.430 906.901,466.079 911.040 L 462.158 914.770 462.189 922.745 C 462.224 931.592,461.110 934.683,457.564 935.573 C 455.177 936.172,451.176 934.656,449.721 932.600 C 449.293 931.995,449.050 927.773,449.181 923.217 L 449.420 914.934 446.237 912.998 C 442.376 910.650,441.125 906.653,443.130 903.069 C 444.372 900.848,445.783 900.282,453.534 898.894 C 463.583 897.094,465.731 897.284,468.250 900.198 M606.565 900.459 C 608.866 903.971,607.617 908.577,603.660 911.171 L 600.500 913.242 600.500 922.702 C 600.500 930.911,600.244 932.349,598.559 933.581 C 595.993 935.457,592.981 935.375,590.092 933.352 C 587.849 931.781,587.763 931.290,588.244 922.852 C 588.623 916.205,588.440 914.000,587.509 914.000 C 586.828 914.000,585.084 913.067,583.635 911.927 C 580.453 909.425,580.030 904.187,582.807 901.675 C 584.755 899.911,592.621 898.305,600.227 898.117 C 604.214 898.018,605.206 898.385,606.565 900.459 " stroke="none" fill="black" fill-rule="evenodd"/></svg>