<svg xmlns="http://www.w3.org/2000/svg" data-name="Layer 1" viewBox="0 0 128 128" id="pattern"><path d="M125.384 58.08c-2.72-2.482-7.62-7.255-15.523-15.907a29.29 29.29 0 0 0-14.832-9.202 29.29 29.29 0 0 0-9.202-14.832C77.175 10.237 72.4 5.336 69.92 2.616a8.008 8.008 0 0 0-11.841 0c-2.481 2.72-7.255 7.62-15.907 15.523a29.29 29.29 0 0 0-9.202 14.832 29.29 29.29 0 0 0-14.832 9.202C10.237 50.825 5.336 55.6 2.616 58.08a8.008 8.008 0 0 0 0 11.841c2.72 2.481 7.62 7.255 15.523 15.907a29.291 29.291 0 0 0 14.832 9.202 29.291 29.291 0 0 0 9.202 14.832c8.652 7.902 13.426 12.803 15.907 15.523a8.008 8.008 0 0 0 11.84 0c2.482-2.72 7.255-7.62 15.907-15.523a29.291 29.291 0 0 0 9.202-14.832 29.291 29.291 0 0 0 14.832-9.202c7.902-8.652 12.803-13.426 15.523-15.907a8.008 8.008 0 0 0 0-11.84ZM44.871 21.091c8.61-7.864 13.491-12.85 16.164-15.78a4.008 4.008 0 0 1 5.93 0c2.673 2.93 7.553 7.916 16.164 15.78a26.548 26.548 0 0 1 7.189 10.176c-3.685.102-8.507.024-14.355-.24A19.677 19.677 0 0 0 64 33.99a19.68 19.68 0 0 0-11.963-2.964c-5.848.265-10.67.344-14.355.241a26.549 26.549 0 0 1 7.189-10.176Zm25.467 27.141a7.925 7.925 0 0 1 2.761 4.915 2 2 0 0 0 1.752 1.752 7.93 7.93 0 0 1 4.916 2.761c2.923 3.201 4.89 5.16 6.158 6.339-1.269 1.18-3.235 3.138-6.158 6.339a7.924 7.924 0 0 1-4.915 2.76 2 2 0 0 0-1.753 1.752 7.928 7.928 0 0 1-2.76 4.916c-3.2 2.921-5.158 4.89-6.339 6.16-1.18-1.27-3.14-3.239-6.338-6.16A7.927 7.927 0 0 1 54.9 74.85a2 2 0 0 0-1.753-1.752 7.924 7.924 0 0 1-4.915-2.76c-2.923-3.201-4.89-5.16-6.158-6.339 1.269-1.18 3.235-3.138 6.158-6.339a7.93 7.93 0 0 1 4.916-2.76 2 2 0 0 0 1.752-1.753 7.926 7.926 0 0 1 2.76-4.915c3.2-2.921 5.158-4.89 6.339-6.16 1.18 1.27 3.14 3.239 6.338 6.16ZM35.023 52.22c.275-6.067.355-11.08.238-14.898a2.008 2.008 0 0 1 .125-.757c.346-.057.69-.109 1.03-.149.04-.342.091-.688.15-1.036a1.859 1.859 0 0 1 .755-.118c3.813.119 8.824.037 14.897-.238a15.486 15.486 0 0 1 10.208 2.763c-.023.03-.054.052-.075.083-.054.076-1.38 1.924-7.388 7.411a12.238 12.238 0 0 0-3.756 5.926 12.235 12.235 0 0 0-5.927 3.758c-5.488 6.008-7.337 7.334-7.404 7.382-.034.023-.058.054-.09.08a15.518 15.518 0 0 1-2.763-10.207Zm-3.996 23.744c.265 5.842.345 10.665.241 14.355a26.548 26.548 0 0 1-10.175-7.189C13.228 74.52 8.242 69.638 5.312 66.965a4.008 4.008 0 0 1 0-5.93c2.93-2.673 7.916-7.553 15.78-16.164a26.548 26.548 0 0 1 10.176-7.189c.104 3.69.024 8.512-.241 14.356A19.71 19.71 0 0 0 33.992 64a19.711 19.711 0 0 0-2.965 11.963Zm5.538 16.654a21.83 21.83 0 0 1-.15-1.032c-.34-.04-.683-.092-1.029-.15a2.004 2.004 0 0 1-.125-.755c.117-3.82.037-8.832-.238-14.898a15.52 15.52 0 0 1 2.763-10.207c.029.023.05.052.081.073.076.054 1.925 1.38 7.413 7.388a12.23 12.23 0 0 0 5.927 3.757 12.23 12.23 0 0 0 3.757 5.927c6.007 5.487 7.333 7.335 7.364 7.378.028.043.068.075.099.115a15.497 15.497 0 0 1-10.21 2.764c-6.072-.275-11.084-.357-14.896-.238a1.915 1.915 0 0 1-.756-.122Zm46.564 14.29c-8.61 7.865-13.491 12.851-16.164 15.781a4.008 4.008 0 0 1-5.93 0c-2.673-2.93-7.553-7.916-16.164-15.78a26.55 26.55 0 0 1-7.189-10.176c3.686-.102 8.507-.023 14.355.24A19.693 19.693 0 0 0 64 94.01 19.253 19.253 0 0 0 74.769 97q.59 0 1.194-.027c5.848-.264 10.67-.343 14.355-.241a26.55 26.55 0 0 1-7.189 10.176Zm9.848-31.125c-.274 6.062-.355 11.074-.238 14.898a2.006 2.006 0 0 1-.126.756 21.82 21.82 0 0 1-1.028.149c-.04.34-.092.685-.15 1.03a1.978 1.978 0 0 1-.756.124c-3.81-.117-8.824-.036-14.897.237a15.495 15.495 0 0 1-10.208-2.762c.024-.03.054-.052.075-.083.054-.076 1.38-1.924 7.388-7.411a12.232 12.232 0 0 0 3.756-5.927 12.23 12.23 0 0 0 5.927-3.757c5.488-6.008 7.337-7.334 7.404-7.382.034-.023.058-.054.09-.08a15.52 15.52 0 0 1 2.763 10.208Zm-2.763-13.357c-.029-.023-.05-.052-.081-.073-.076-.054-1.925-1.38-7.413-7.388a12.235 12.235 0 0 0-5.927-3.758 12.235 12.235 0 0 0-3.757-5.926c-6.007-5.487-7.333-7.335-7.364-7.378-.028-.043-.068-.075-.099-.115a15.485 15.485 0 0 1 10.21-2.764c6.071.274 11.082.355 14.896.238a1.925 1.925 0 0 1 .756.122c.058.347.11.691.15 1.032.34.04.683.091 1.028.149a2.01 2.01 0 0 1 .126.757c-.117 3.823-.036 8.835.238 14.897a15.52 15.52 0 0 1-2.763 10.207Zm32.474 4.54c-2.93 2.673-7.916 7.553-15.78 16.164a26.548 26.548 0 0 1-10.177 7.189c-.103-3.694-.022-8.516.242-14.355v-.001A19.71 19.71 0 0 0 94.008 64a19.711 19.711 0 0 0 2.965-11.963c-.264-5.84-.345-10.662-.242-14.355a26.548 26.548 0 0 1 10.176 7.189c7.865 8.61 12.851 13.491 15.781 16.164a4.008 4.008 0 0 1 0 5.93Z"></path><path d="M53.5 64A10.5 10.5 0 1 0 64 53.5 10.512 10.512 0 0 0 53.5 64ZM64 57.5a6.5 6.5 0 1 1-6.5 6.5 6.5 6.5 0 0 1 6.5-6.5Z"></path></svg>